{
  "accessors": [
    {
      "bufferView": 2,
      "componentType": 5126,
      "count": 65532,
      "max": [
        1.17364501953125,
        -1.8550652265548706,
        2.4204018115997314
      ],
      "min": [
        -1.5346845388412476,
        -6.966129779815674,
        -2.421342372894287
      ],
      "type": "VEC3"
    },
    {
      "bufferView": 2,
      "byteOffset": 786384,
      "componentType": 5126,
      "count": 65532,
      "max": [
        0.9999924302101135,
        0.9999203681945801,
        0.9999405145645142
      ],
      "min": [
        -0.9999907612800598,
        -0.9987733364105225,
        -0.9999557137489319
      ],
      "type": "VEC3"
    },
    {
      "bufferView": 1,
      "componentType": 5126,
      "count": 65532,
      "max": [
        0.9802219867706299,
        0.9996060132980347
      ],
      "min": [
        0.0,
        0.008364999666810036
      ],
      "type": "VEC2"
    },
    {
      "bufferView": 0,
      "componentType": 5125,
      "count": 355929,
      "type": "SCALAR"
    },
    {
      "bufferView": 2,
      "byteOffset": 1572768,
      "componentType": 5126,
      "count": 38078,
      "max": [
        1.1861628293991089,
        -3.5245792865753174,
        2.307769536972046
      ],
      "min": [
        -0.8185765147209167,
        -8.225754737854004,
        -2.197195291519165
      ],
      "type": "VEC3"
    },
    {
      "bufferView": 2,
      "byteOffset": 2029704,
      "componentType": 5126,
      "count": 38078,
      "max": [
        0.9999924302101135,
        0.9999173283576965,
        0.9999644160270691
      ],
      "min": [
        -0.9999987483024597,
        -0.9996208548545837,
        -0.9999521374702454
      ],
      "type": "VEC3"
    },
    {
      "bufferView": 1,
      "byteOffset": 524256,
      "componentType": 5126,
      "count": 38078,
      "max": [
        0.9845709800720215,
        0.9995920062065125
      ],
      "min": [
        3.600000127335079e-05,
        0.0
      ],
      "type": "VEC2"
    },
    {
      "bufferView": 0,
      "byteOffset": 1423716,
      "componentType": 5125,
      "count": 176403,
      "type": "SCALAR"
    },
    {
      "bufferView": 2,
      "byteOffset": 2486640,
      "componentType": 5126,
      "count": 1600,
      "max": [
        1.5346845388412476,
        -2.4516228336324275e-07,
        1.4737708568572998
      ],
      "min": [
        -1.145029067993164,
        -5.638732545776293e-06,
        -1.2596467733383179
      ],
      "type": "VEC3"
    },
    {
      "bufferView": 2,
      "byteOffset": 2505840,
      "componentType": 5126,
      "count": 1600,
      "max": [
        0.999921977519989,
        1.0,
        0.9997769594192505
      ],
      "min": [
        -0.9999188780784607,
        -0.6861162185668945,
        -0.9976882934570313
      ],
      "type": "VEC3"
    },
    {
      "bufferView": 1,
      "byteOffset": 828880,
      "componentType": 5126,
      "count": 1600,
      "max": [
        0.0,
        0.0
      ],
      "min": [
        0.0,
        0.0
      ],
      "type": "VEC2"
    },
    {
      "bufferView": 0,
      "byteOffset": 2129328,
      "componentType": 5125,
      "count": 6222,
      "type": "SCALAR"
    },
    {
      "bufferView": 2,
      "byteOffset": 2525040,
      "componentType": 5126,
      "count": 65532,
      "max": [
        1.5346845388412476,
        -2.2064605218474753e-06,
        1.8164891004562378
      ],
      "min": [
        -1.1455278396606445,
        -6.9658284187316895,
        -1.2666665315628052
      ],
      "type": "VEC3"
    },
    {
      "bufferView": 2,
      "byteOffset": 3311424,
      "componentType": 5126,
      "count": 65532,
      "max": [
        0.9999937415122986,
        1.0,
        0.9999794960021973
      ],
      "min": [
        -0.9999948740005493,
        -0.9974548816680908,
        -0.9999343752861023
      ],
      "type": "VEC3"
    },
    {
      "bufferView": 1,
      "byteOffset": 841680,
      "componentType": 5126,
      "count": 65532,
      "max": [
        0.9592000246047974,
        1.0
      ],
      "min": [
        0.0055320002138614655,
        0.006422999780625105
      ],
      "type": "VEC2"
    },
    {
      "bufferView": 0,
      "byteOffset": 2154216,
      "componentType": 5125,
      "count": 367683,
      "type": "SCALAR"
    },
    {
      "bufferView": 2,
      "byteOffset": 4097808,
      "componentType": 5126,
      "count": 49858,
      "max": [
        1.1625641584396362,
        -2.1431450843811035,
        2.421342611312866
      ],
      "min": [
        -0.9730560779571533,
        -7.5722126960754395,
        -2.421342372894287
      ],
      "type": "VEC3"
    },
    {
      "bufferView": 2,
      "byteOffset": 4696104,
      "componentType": 5126,
      "count": 49858,
      "max": [
        0.9999927878379822,
        0.9999173283576965,
        0.9999657869338989
      ],
      "min": [
        -0.9999989867210388,
        -0.9998983144760132,
        -0.9999858140945435
      ],
      "type": "VEC3"
    },
    {
      "bufferView": 1,
      "byteOffset": 1365936,
      "componentType": 5126,
      "count": 49858,
      "max": [
        0.979623019695282,
        1.0
      ],
      "min": [
        0.0,
        0.0004330000083427876
      ],
      "type": "VEC2"
    },
    {
      "bufferView": 0,
      "byteOffset": 3624948,
      "componentType": 5125,
      "count": 258939,
      "type": "SCALAR"
    }
  ],
  "asset": {
    "extras": {
      "author": "PRINTERROR (https://sketchfab.com/printerror)",
      "license": "CC-BY-SA-4.0 (http://creativecommons.org/licenses/by-sa/4.0/)",
      "source": "https://sketchfab.com/3d-models/baphomet-statue-3d2e909122bd495eb54fcdd71c2ab3cd",
      "title": "Baphomet Statue"
    },
    "generator": "Sketchfab-12.68.0",
    "version": "2.0"
  },
  "bufferViews": [
    {
      "buffer": 0,
      "byteLength": 4660704,
      "name": "floatBufferViews",
      "target": 34963
    },
    {
      "buffer": 0,
      "byteLength": 1764800,
      "byteOffset": 4660704,
      "byteStride": 8,
      "name": "floatBufferViews",
      "target": 34962
    },
    {
      "buffer": 0,
      "byteLength": 5294400,
      "byteOffset": 6425504,
      "byteStride": 12,
      "name": "floatBufferViews",
      "target": 34962
    }
  ],
  "buffers": [
    {
      "byteLength": 11719904,
      "uri": "scene.bin"
    }
  ],
  "images": [
    {
      "uri": "textures/baphomet3_denoised_baseColor.jpeg"
    },
    {
      "uri": "textures/baphomet3_denoised1_baseColor.jpeg"
    }
  ],
  "materials": [
    {
      "name": "baphomet3_denoised",
      "pbrMetallicRoughness": {
        "baseColorTexture": {
          "index": 0
        },
        "metallicFactor": 0.0,
        "roughnessFactor": 0.0
      }
    },
    {
      "doubleSided": true,
      "name": "baphomet3_denoised1",
      "pbrMetallicRoughness": {
        "baseColorTexture": {
          "index": 1
        },
        "metallicFactor": 0.0
      }
    }
  ],
  "meshes": [
    {
      "name": "Object_0",
      "primitives": [
        {
          "attributes": {
            "NORMAL": 1,
            "POSITION": 0,
            "TEXCOORD_0": 2
          },
          "indices": 3,
          "material": 0,
          "mode": 4
        }
      ]
    },
    {
      "name": "Object_1",
      "primitives": [
        {
          "attributes": {
            "NORMAL": 5,
            "POSITION": 4,
            "TEXCOORD_0": 6
          },
          "indices": 7,
          "material": 0,
          "mode": 4
        }
      ]
    },
    {
      "name": "Object_2",
      "primitives": [
        {
          "attributes": {
            "NORMAL": 9,
            "POSITION": 8,
            "TEXCOORD_0": 10
          },
          "indices": 11,
          "material": 0,
          "mode": 4
        }
      ]
    },
    {
      "name": "Object_3",
      "primitives": [
        {
          "attributes": {
            "NORMAL": 13,
            "POSITION": 12,
            "TEXCOORD_0": 14
          },
          "indices": 15,
          "material": 1,
          "mode": 4
        }
      ]
    },
    {
      "name": "Object_4",
      "primitives": [
        {
          "attributes": {
            "NORMAL": 17,
            "POSITION": 16,
            "TEXCOORD_0": 18
          },
          "indices": 19,
          "material": 1,
          "mode": 4
        }
      ]
    }
  ],
  "nodes": [
    {
      "children": [
        1
      ],
      "matrix": [
        -1.0,
        8.326672684688678e-17,
        -1.885678379114018e-16,
        0.0,
        -8.326672684688674e-17,
        -1.0,
        0.0,
        0.0,
        -1.8856783791140183e-16,
        0.0,
        1.0,
        0.0,
        2.7179718017578125e-05,
        -4.112877368927003,
        4.112877368927001,
        1.0
      ],
      "name": "Sketchfab_model"
    },
    {
      "children": [
        2,
        3,
        4,
        5,
        6
      ],
      "name": "baphomet3_sketchfab.obj.cleaner.materialmerger.gles"
    },
    {
      "mesh": 0,
      "name": "Object_2"
    },
    {
      "mesh": 1,
      "name": "Object_3"
    },
    {
      "mesh": 2,
      "name": "Object_4"
    },
    {
      "mesh": 3,
      "name": "Object_5"
    },
    {
      "mesh": 4,
      "name": "Object_6"
    }
  ],
  "samplers": [
    {
      "magFilter": 9729,
      "minFilter": 9987,
      "wrapS": 10497,
      "wrapT": 10497
    }
  ],
  "scene": 0,
  "scenes": [
    {
      "name": "Sketchfab_Scene",
      "nodes": [
        0
      ]
    }
  ],
  "textures": [
    {
      "sampler": 0,
      "source": 0
    },
    {
      "sampler": 0,
      "source": 1
    }
  ]
}
